<?xml version="1.0" encoding="utf-8"?>
<!-- Generated by IcoMoon.io -->
<!DOCTYPE svg PUBLIC "-//W3C//DTD SVG 1.1//EN" "http://www.w3.org/Graphics/SVG/1.1/DTD/svg11.dtd">
<svg version="1.1" xmlns="http://www.w3.org/2000/svg" xmlns:xlink="http://www.w3.org/1999/xlink" width="20" height="20" viewBox="0 0 768 768">
<g id="icomoon-ignore">
</g>
<path fill="white" d="M608 576c17.6 0 32 14.4 32 32s-14.4 32-32 32h-448c-17.6 0-32-14.4-32-32s14.4-32 32-32h448zM608 512h-448c-52.928 0-96 43.072-96 96s43.072 96 96 96h448c52.928 0 96-43.072 96-96s-43.072-96-96-96z"></path>
<path fill="white" d="M608 352c17.6 0 32 14.4 32 32s-14.4 32-32 32h-448c-17.6 0-32-14.4-32-32s14.4-32 32-32h448zM608 288h-448c-52.928 0-96 43.072-96 96s43.072 96 96 96h448c52.928 0 96-43.072 96-96s-43.072-96-96-96z"></path>
<path fill="white" d="M608 128c17.6 0 32 14.4 32 32s-14.4 32-32 32h-448c-17.6 0-32-14.4-32-32s14.4-32 32-32h448zM608 64h-448c-52.928 0-96 43.072-96 96s43.072 96 96 96h448c52.928 0 96-43.072 96-96s-43.072-96-96-96z"></path>
</svg>
