<?xml version="1.0" encoding="utf-8"?>
<!-- Generated by IcoMoon.io -->
<!DOCTYPE svg PUBLIC "-//W3C//DTD SVG 1.1//EN" "http://www.w3.org/Graphics/SVG/1.1/DTD/svg11.dtd">
<svg version="1.1" xmlns="http://www.w3.org/2000/svg" xmlns:xlink="http://www.w3.org/1999/xlink" width="20" height="20" viewBox="0 0 640 640">
<g id="icomoon-ignore">
</g>
<path fill="white" d="M620.164 544.622l-151.595-128.934c-15.671-14.104-32.431-20.579-45.97-19.954 35.785-41.917 57.401-96.299 57.401-155.735 0-132.549-107.451-240-240-240-132.548 0-240 107.451-240 240s107.451 240 240 240c59.436 0 113.818-21.616 155.735-57.403-0.625 13.539 5.85 30.299 19.954 45.97l128.934 151.595c22.076 24.529 58.139 26.596 80.138 4.597s19.933-58.061-4.596-80.138zM240 400c-88.365 0-160-71.635-160-160s71.635-160 160-160 160 71.635 160 160-71.634 160-160 160z"></path>
</svg>
